<svg width="14" height="16" viewBox="0 0 14 16" fill="none" xmlns="http://www.w3.org/2000/svg">
<path d="M7.27735 0.0839749C7.1094 -0.0279916 6.8906 -0.0279916 6.72265 0.0839749C4.78446 1.3761 2.68833 2.18231 0.429289 2.50503C0.182965 2.54021 0 2.75118 0 3V7.5C0 11.3913 2.30699 14.2307 6.82051 15.9667C6.93605 16.0111 7.06395 16.0111 7.17949 15.9667C11.693 14.2307 14 11.3913 14 7.5V3C14 2.75118 13.817 2.54021 13.5707 2.50503C11.3117 2.18231 9.21554 1.3761 7.27735 0.0839749ZM10.8536 5.85355L6.85355 9.85355C6.65829 10.0488 6.34171 10.0488 6.14645 9.85355L4.14645 7.85355C3.95118 7.65829 3.95118 7.34171 4.14645 7.14645C4.34171 6.95119 4.65829 6.95119 4.85355 7.14645L6.5 8.79289L10.1464 5.14645C10.3417 4.95118 10.6583 4.95118 10.8536 5.14645C11.0488 5.34171 11.0488 5.65829 10.8536 5.85355Z" fill="#171717"/>
</svg>
